<?xml version="1.0" encoding="UTF-8"?>
<svg xmlns="http://www.w3.org/2000/svg" version="1.1" viewBox="0 0 190.1 189.8">
  <defs>
    <style>
      .cls-1 {
        isolation: isolate;
      }

      .cls-2 {
        fill: #912f56;
      }

      .cls-3 {
        fill: #942c3f;
      }

      .cls-4 {
        fill: #fff;
      }

      .cls-5 {
        fill: #77160e;
      }

      .cls-6 {
        fill: #eaa372;
        stroke: #77160e;
        stroke-miterlimit: 10;
        stroke-width: .8px;
      }
    </style>
  </defs>
  <!-- Generator: Adobe Illustrator 28.6.0, SVG Export Plug-In . SVG Version: 1.2.0 Build 709)  -->
  <g>
    <g id="Layer_1">
      <path class="cls-4" d="M127.9,94.2c.4-2.7,1.5-15.4-6.4-29.1-6.7-11-14.8-16.5-24.2-16.5s-3.1.2-4.2.4c3.1-1.8,10.7-5.6,19.4-5.6s2.9.1,4.3.3c13.5,2,28,15.1,28,31.3s-14.2,18.5-17,19.2h0Z"/>
      <path class="cls-3" d="M112.5,43.7c1.4,0,2.9.1,4.3.3,6.7,1,13.6,4.8,18.9,10.3,5.7,6,8.9,13.3,8.9,20.7s-2.9,11.7-8.5,15.3c-3.1,2-6.2,3-7.7,3.4.4-3.6,1.1-15.6-6.5-28.8-6.7-11.1-14.9-16.7-24.5-16.7s-1.7,0-2.4.1c3.7-1.9,10.2-4.7,17.6-4.7M112.5,43c-11.7,0-21.1,6.6-21.1,6.6,1.2-.2,3.3-.7,5.9-.7,6.2,0,15.5,2.5,23.9,16.4,8.9,15.3,6.3,29.3,6.3,29.3,0,0,17.7-3.4,17.7-19.7s-14.8-29.6-28.3-31.6c-1.5-.2-2.9-.3-4.4-.3h0Z"/>
      <path class="cls-6" d="M92.5,49.4c-.3.1-.5.3-.8.4-3.5,2.6-6.6,8.4-6.3,16.4.2.6.5,1.2.7,1.7,4.9,11.5,10.7,26.3,18.9,27.1,5.4,0,15.4-1.7,7.2-17.8s6-15.2,6-15.2h.7c-10.5-14.8-21.8-13.5-26.5-12.6h0Z"/>
      <path class="cls-4" d="M101.7,95.1c-7.7,0-22.6-.3-23.7-.4-2.9-1.2-7.8-3.3-13.3-18.5-1.3-3.7-2.5-7.2-3.4-10.3-3.2-10.1-5.3-16.7-11.7-17.3-.5,0-.9,0-1.3,0-5.3,0-8,3.3-9,5.1,0-1,.2-2.6,1.4-4.1,2.5-3.2,8-5,16.1-5.1h.6c18.7,0,23.3,11.1,27.8,21.8l1.4,3.4c4.4,10.4,9.8,23.2,17,25.5h-1.8,0Z"/>
      <path class="cls-3" d="M57.3,44.1v.7h0c18.4,0,23,11,27.4,21.6.2.6.5,1.2.8,1.8l.7,1.6c4.3,10.2,9.1,21.5,15.6,25h0c-7.6,0-22.1-.3-23.6-.4-2.9-1.2-7.6-3.3-13.1-18.2-1.3-3.7-2.5-7.2-3.4-10.3-3.1-9.8-5.3-17-12-17.6-.5,0-.9,0-1.3,0-4.5,0-7.1,2.2-8.5,4.1.2-.8.5-1.7,1.2-2.6,1.7-2.2,5.8-4.8,15.8-4.9h.6v-.7M57.3,44.1h-.6c-20.5.3-17.7,10.8-17.7,10.8,0,0,2.1-6,9.2-6s.8,0,1.3,0c8.2.8,9.2,12,14.8,27.4,5.6,15.4,10.5,17.4,13.6,18.7,0,0,15.7.4,23.7.4s6.1,0,3.4-.4c-8.2-.8-14.1-15.6-18.9-27.1-4.8-11.4-8.9-23.8-28.8-23.8h0Z"/>
      <path class="cls-2" d="M103.2,49.5c1.4-.1,2.9.2,4.2.5,2,.5,4,1.2,5.9,1.9s3.9,1.7,5.8,2.9,3.3,2.5,4.8,4c5.6,5.5,10.8,13.2,9.2,21.4-.3,1.5-.7,3.1-.8,4.6-.3,2.6-.2,5.2,0,7.8,0,0,.3,0,.3,0-.2-2.4-.3-4.8-.1-7.2.1-1.6.4-3.1.8-4.6.2-1.2.5-2.4.5-3.6,0-1.8-.4-3.6-.9-5.3-1.5-4.7-4.3-8.7-7.8-12.2-1.5-1.5-3.1-3.1-4.9-4.3s-3.8-2.2-5.8-3-4.2-1.6-6.5-2.2c-1.5-.4-3.1-.8-4.6-.6,0,0-.4.2-.2.1h0Z"/>
      <path class="cls-2" d="M119.8,62.5c2.8.8,5.3,2.4,6.9,4.8,2.2,3.1,2.7,6.9,2.1,10.6-.3,1.8-.8,3.5-1.5,5.2,0,0,.3,0,.3,0,1.3-3.2,2.1-6.7,1.6-10.2s-2.3-6.7-5.2-8.7c-1.2-.9-2.6-1.5-4.1-1.9,0,0-.4,0-.3.1h0Z"/>
      <path class="cls-2" d="M97,48.7c3.4-.7,6.8-1.5,10.3-1.5,2.3,0,4.7.3,7,.8,2.6.6,5.2,1.4,7.5,2.6,7.5,3.8,12.7,11.2,16,18.8,2.3,5.3,3.1,11,3.1,16.7s.3,0,.3,0c0-5.1-.6-10.2-2.4-15-1.5-4-3.7-7.8-6.2-11.2s-5.8-6.6-9.6-8.8c-2.2-1.2-4.5-2.1-6.9-2.7s-4.8-1.1-7.2-1.2c-4-.2-7.9.7-11.8,1.5-.1,0-.3.2,0,.1h0Z"/>
      <path class="cls-2" d="M101.6,45.2c1.8-.2,3.6-.6,5.4-.6,3.6,0,7.1.7,10.5,1.8,4.9,1.5,9.7,3.6,13.9,6.5,2.9,2.1,5.6,4.5,7.9,7.3,1.1,1.3,2.2,2.7,3,4.2,0,0,.4,0,.3,0-.7-1.2-1.5-2.3-2.4-3.4-2.2-2.8-4.7-5.2-7.5-7.4-4-3-8.5-5.2-13.3-6.8-3.6-1.2-7.4-2.2-11.3-2.3-1.3,0-2.6,0-3.8.2-.9.1-1.8.3-2.8.4,0,0-.4.2-.1.2h0Z"/>
      <path class="cls-2" d="M78.2,53.7c-.8,1.6-1.7,3.3-1.8,5.2,0,1.6.6,3.2,1.6,4.5,2.2,3,5.8,4.3,8.8,6.3,0,0,.4,0,.3-.1-2.9-1.9-6.4-3.2-8.6-6.1-1-1.3-1.7-2.8-1.7-4.5,0-1.9.9-3.7,1.8-5.3,0,0-.3,0-.3,0h0Z"/>
      <path class="cls-2" d="M88.2,73.9c-4.1-2.3-8.8-3.8-12.5-6.9s-5.1-7.9-6-12.5c-.6-2.8-1-5.7-1.5-8.5,0-.1-.3,0-.3,0,.8,5,1.4,10.2,3.3,15,.8,2.1,2,4,3.6,5.5s3.5,2.7,5.4,3.7c2.5,1.3,5.2,2.4,7.7,3.8,0,0,.4,0,.3-.2h0Z"/>
      <path class="cls-2" d="M59.5,44.7c2.9,2.8,4.2,6.6,5.5,10.3s2.6,7.5,5.1,10.7c2.7,3.5,6.3,6.1,9.6,9,3.5,3.1,6.7,6.4,9.6,10,1.6,2,3,4.1,4.5,6.1,1.3,1.8,2.7,3.4,4.8,4.2,0,0,.4-.1.3-.2-1.9-.7-3.3-2.3-4.5-3.9-1.3-1.8-2.5-3.6-3.8-5.3-2.8-3.7-6-7.1-9.4-10.2-3.2-2.9-6.8-5.5-9.6-8.8-1.4-1.6-2.7-3.4-3.6-5.4-.8-1.8-1.5-3.6-2.1-5.5-1.4-4-2.7-8.3-5.9-11.3,0,0-.4,0-.3.1h0Z"/>
      <path class="cls-2" d="M49.2,45.2c8.6.6,12.3,9.7,14.9,16.6,1.5,3.9,3.1,7.8,5.8,11.1,1.4,1.7,2.9,3.1,4.4,4.7s2.8,3.1,4.1,4.8c2.8,3.8,5,8,6.6,12.4,0,0,.4,0,.3,0-1.5-4-3.4-7.8-5.8-11.3-1.1-1.7-2.4-3.3-3.7-4.8-1.4-1.6-3.1-3.1-4.5-4.7-3-3.3-4.8-7.2-6.5-11.4s-3.1-8.2-5.7-11.7c-2.4-3.2-5.7-5.5-9.7-5.7,0,0-.4.1-.2.1h0Z"/>
      <path class="cls-2" d="M62.5,70.1c1.1,3.7,2.7,7.1,5,10.2s5.1,5.8,7.4,8.8c1.4,1.7,2.6,3.6,3.4,5.6,0,.1.4,0,.3,0-1.5-3.5-3.9-6.3-6.4-9.1-2.6-2.9-5.2-5.9-7-9.4-1-1.9-1.8-4-2.4-6.1,0-.1-.4,0-.3,0h0Z"/>
      <g class="cls-1">
        <g class="cls-1">
          <path class="cls-5" d="M53.5,106.5h7c4.7,0,7.2,2.4,7.2,5.9s-2.6,5.9-7.2,5.9h-2.7v6h-4.3v-17.9ZM57.8,110v4.9h2.7c2,0,2.9-.9,2.9-2.5s-.9-2.5-2.9-2.5h-2.7Z"/>
        </g>
        <g class="cls-1">
          <path class="cls-5" d="M89,121h-6.1l-1.2,3.4h-4.4l6.6-17.9h4.2l6.6,17.9h-4.5l-1.2-3.4ZM84,117.7h3.8l-1.3-4-.5-2.3h-.2l-.5,2.3-1.4,4Z"/>
          <path class="cls-5" d="M112.2,115.2l-1-1.7h-.2v11h-4.3v-17.9h3.7l7,9.4,1.2,1.9h.2v-11.3h4.3v17.9h-3.7l-7.1-9.3Z"/>
          <path class="cls-5" d="M136.7,106.5h4.3v17.9h-4.3v-17.9Z"/>
        </g>
      </g>
      <g class="cls-1">
        <g class="cls-1">
          <path class="cls-5" d="M54.1,141c.4.1.7.2,1.1.3s.9.1,1.4.1c.9,0,1.6-.2,2-.5.4-.4.7-.9.7-1.5s0-.6-.1-.8-.2-.4-.4-.6c-.2-.2-.4-.3-.7-.4-.3-.1-.6-.3-1-.4l-.9-.4c-.3-.1-.6-.3-.9-.4-.3-.2-.5-.4-.7-.6-.2-.2-.3-.5-.5-.8-.1-.3-.2-.7-.2-1.1,0-1,.3-1.8,1-2.3s1.6-.8,2.9-.8,1,0,1.5.1c.5,0,.9.2,1.2.3,0,.5-.2.9-.4,1.4-.3-.1-.6-.2-1-.3-.4,0-.8-.1-1.3-.1s-1.2.1-1.6.4c-.4.3-.6.7-.6,1.3s0,.4.1.6c0,.2.2.3.4.5.2.1.3.3.5.4.2.1.4.2.7.3l.9.4c.4.2.8.4,1.2.5.3.2.6.4.9.7s.4.6.5.9.2.8.2,1.2c0,1.1-.4,2-1.2,2.7-.8.7-1.9,1-3.3,1s-.6,0-.9,0c-.3,0-.5,0-.8,0-.2,0-.5,0-.7-.2-.2,0-.4-.1-.7-.2,0-.2,0-.5.1-.7,0-.3.2-.5.2-.7Z"/>
        </g>
        <g class="cls-1">
          <path class="cls-5" d="M67,132.4h-3.1c0-.1,0-.2,0-.4,0-.1,0-.3,0-.4s0-.2,0-.4c0-.1,0-.2,0-.4h7.8c0,.1,0,.2,0,.3,0,.1,0,.2,0,.4s0,.2,0,.4c0,.1,0,.3,0,.4h-3.1v10.3c-.3,0-.5,0-.8,0s-.6,0-.9,0v-10.3Z"/>
        </g>
        <g class="cls-1">
          <path class="cls-5" d="M79.1,142.9c-.9,0-1.6-.2-2.2-.5-.6-.3-1.1-.7-1.5-1.3-.4-.5-.7-1.2-.9-1.9-.2-.7-.3-1.6-.3-2.4s.1-1.7.3-2.4c.2-.7.5-1.4.9-1.9.4-.5.9-1,1.5-1.3.6-.3,1.4-.5,2.2-.5s1.6.2,2.2.5c.6.3,1.1.7,1.5,1.3.4.5.7,1.2.9,1.9.2.7.3,1.6.3,2.4s0,1.7-.3,2.4c-.2.7-.5,1.4-.9,1.9-.4.5-.9,1-1.5,1.3s-1.4.5-2.2.5ZM79.1,141.5c.5,0,1-.1,1.4-.3.4-.2.7-.5,1-.9.3-.4.5-.9.6-1.5.1-.6.2-1.2.2-1.9s0-1.4-.2-1.9c-.1-.6-.3-1.1-.6-1.5-.3-.4-.6-.7-1-.9-.4-.2-.9-.3-1.4-.3s-1,.1-1.4.3c-.4.2-.7.5-1,.9s-.5.9-.6,1.5c-.1.6-.2,1.2-.2,1.9s0,1.4.2,1.9c.1.6.3,1.1.6,1.5.3.4.6.7,1,.9.4.2.9.3,1.4.3Z"/>
          <path class="cls-5" d="M88.1,131c.1,0,.2,0,.4,0,.1,0,.3,0,.4,0s.3,0,.4,0c.1,0,.3,0,.4,0v10.3h4.6c0,.1,0,.2,0,.4s0,.3,0,.4c0,.3,0,.5,0,.7h-6.3v-11.8Z"/>
          <path class="cls-5" d="M103.7,140h-4.5l-.8,2.7c-.1,0-.3,0-.4,0-.1,0-.3,0-.4,0s-.3,0-.5,0-.3,0-.4,0l3.8-11.8c.1,0,.3,0,.5,0,.2,0,.3,0,.5,0s.3,0,.5,0,.3,0,.5,0l3.8,11.8c-.1,0-.3,0-.4,0-.2,0-.3,0-.5,0s-.3,0-.4,0-.3,0-.4,0l-.8-2.7ZM99.7,138.6h3.6l-1.8-6-1.8,6Z"/>
          <path class="cls-5" d="M109.7,130.9c.2,0,.5,0,.7,0,.2,0,.4,0,.6,0,.2,0,.4,0,.6,0,.2,0,.4,0,.7,0,.6,0,1.1,0,1.7.2.5.1,1,.3,1.5.6.4.3.8.6,1,1.1s.4,1.1.4,1.8,0,.8-.2,1.2c-.1.3-.3.7-.5.9-.2.3-.5.5-.7.7s-.5.4-.8.5h-.2c0,0,3.4,5.1,3.4,5.1-.3,0-.6,0-1,0s-.6,0-.9,0l-3.8-5.5h0c0,0,.1,0,.1,0,.3,0,.6-.2.9-.3.3-.1.6-.3.9-.5.3-.2.5-.5.7-.8.2-.3.3-.7.3-1.1,0-.8-.2-1.4-.7-1.8-.5-.4-1.1-.6-1.9-.6s-.4,0-.5,0-.3,0-.5,0v10.5c-.1,0-.3,0-.4,0-.1,0-.3,0-.4,0s-.3,0-.4,0c-.2,0-.3,0-.4,0v-11.8Z"/>
          <path class="cls-5" d="M121.1,131c.1,0,.3,0,.4,0s.3,0,.4,0,.3,0,.4,0c.1,0,.3,0,.4,0v11.8c-.1,0-.3,0-.4,0-.1,0-.3,0-.4,0s-.3,0-.4,0c-.1,0-.3,0-.4,0v-11.8ZM123.2,136.8l3.8-5.8c.2,0,.3,0,.5,0s.3,0,.4,0,.3,0,.5,0c.2,0,.3,0,.5,0l-3.7,5.7,4.2,6.1c-.2,0-.3,0-.5,0-.2,0-.3,0-.5,0s-.3,0-.4,0c-.2,0-.3,0-.5,0l-4.2-6Z"/>
          <path class="cls-5" d="M138.3,140h-4.5l-.8,2.7c-.1,0-.3,0-.4,0-.1,0-.3,0-.4,0s-.3,0-.5,0-.3,0-.4,0l3.8-11.8c.1,0,.3,0,.5,0,.2,0,.3,0,.5,0s.3,0,.5,0,.3,0,.5,0l3.8,11.8c-.1,0-.3,0-.4,0-.2,0-.3,0-.5,0s-.3,0-.4,0-.3,0-.4,0l-.8-2.7ZM134.3,138.6h3.6l-1.8-6-1.8,6Z"/>
        </g>
      </g>
    </g>
  </g>
</svg>